<?xml version="1.0" encoding="utf-8"?>
<!-- Generator: Adobe Illustrator 26.1.0, SVG Export Plug-In . SVG Version: 6.00 Build 0)  -->
<svg version="1.1" id="Layer_1" xmlns="http://www.w3.org/2000/svg" xmlns:xlink="http://www.w3.org/1999/xlink" x="0px" y="0px"
	 viewBox="0 0 871 449.5" style="enable-background:new 0 0 871 449.5;" xml:space="preserve">
<style type="text/css">
	.st0{fill:url(#SVGID_1_);}
	.st1{fill:url(#SVGID_00000130629027919875153150000009690956903320878723_);}
	.st2{fill:url(#SVGID_00000065040494389312318880000010888041830393435019_);}
	.st3{fill:url(#SVGID_00000119802925165079557050000007897440350392113825_);}
	.st4{fill:url(#SVGID_00000148634473428678869360000014639156457471526277_);}
	.st5{fill:url(#SVGID_00000093882118991509098450000010921667592814161813_);}
	.st6{fill:url(#SVGID_00000150822767688037102590000012347961041676146340_);}
	.st7{fill:url(#SVGID_00000057113565643370767610000003943611335573418936_);}
	.st8{fill:url(#SVGID_00000018944116052280632280000016335486783328411039_);}
	.st9{fill:url(#SVGID_00000181780944639454248320000015248426592056731817_);}
	.st10{fill:url(#SVGID_00000154383542679766595370000000530650814557378690_);}
	.st11{fill:url(#SVGID_00000078744363850949192860000012385855462096675227_);}
	.st12{fill:#484A59;}
</style>
<g>
	<g>
		<g>
			<g>
				<g>
					<g>
						<linearGradient id="SVGID_1_" gradientUnits="userSpaceOnUse" x1="304.953" y1="168.1158" x2="304.953" y2="217.1789">
							<stop  offset="0.1397" style="stop-color:#00C566"/>
							<stop  offset="1" style="stop-color:#002A63"/>
						</linearGradient>
						<path class="st0" d="M314.5,189.7h-19.1V209h19.1v-6.5l7.1,1.5v3.6c0,2.8-0.5,4.7-1.6,5.7c-1,1-3,1.5-6,1.5h-18.1
							c-3,0-4.9-0.5-6-1.5c-1-1-1.6-2.9-1.6-5.7v-16c0-2.8,0.5-4.6,1.6-5.7c1-1,3-1.5,6-1.5H314c2.9,0,4.9,0.5,6,1.5
							c1,1,1.6,2.9,1.6,5.7v2.9l-7.1,1.1V189.7z"/>
						
							<linearGradient id="SVGID_00000113325808161006126600000011537239030821806233_" gradientUnits="userSpaceOnUse" x1="343.0131" y1="168.1158" x2="343.0131" y2="217.1789">
							<stop  offset="0.1397" style="stop-color:#00C566"/>
							<stop  offset="1" style="stop-color:#002A63"/>
						</linearGradient>
						<path style="fill:url(#SVGID_00000113325808161006126600000011537239030821806233_);" d="M339.5,214.7v-13.6l-15.8-16.8h9.4
							l10.4,11.7l10.5-11.7h8.3l-15.7,16.6v13.8H339.5z"/>
						
							<linearGradient id="SVGID_00000137820592026028994650000002273496999242352824_" gradientUnits="userSpaceOnUse" x1="382.4839" y1="168.1158" x2="382.4839" y2="217.1789">
							<stop  offset="0.1397" style="stop-color:#00C566"/>
							<stop  offset="1" style="stop-color:#002A63"/>
						</linearGradient>
						<path style="fill:url(#SVGID_00000137820592026028994650000002273496999242352824_);" d="M365.9,214.7v-30.4h26
							c2.4,0,4.1,0.5,5.2,1.4c1.1,0.9,1.6,2.4,1.6,4.5v3.7c0,1.5-0.5,2.6-1.4,3.5c-0.9,0.9-2.2,1.4-3.9,1.6c1.7,0.2,3.1,0.9,4,1.9
							c0.9,1,1.4,2.3,1.4,4v3.9c0,2-0.7,3.5-2.2,4.5s-3.7,1.5-6.7,1.5H365.9z M389,189.2h-16.1v7.2H389c1.2,0,2.1-0.2,2.5-0.5
							c0.5-0.3,0.7-0.9,0.7-1.7v-2.9c0-0.8-0.2-1.3-0.7-1.7C391.1,189.4,390.3,189.2,389,189.2z M389,201.5h-16.1v7.7H389
							c1.3,0,2.2-0.2,2.7-0.6c0.5-0.4,0.7-1.1,0.7-2.1v-2.3c0-1-0.2-1.7-0.7-2.1C391.3,201.7,390.4,201.5,389,201.5z"/>
						
							<linearGradient id="SVGID_00000113349747883227135420000016739821107973482374_" gradientUnits="userSpaceOnUse" x1="420.9145" y1="168.1158" x2="420.9145" y2="217.1789">
							<stop  offset="0.1397" style="stop-color:#00C566"/>
							<stop  offset="1" style="stop-color:#002A63"/>
						</linearGradient>
						<path style="fill:url(#SVGID_00000113349747883227135420000016739821107973482374_);" d="M405.2,214.7v-30.4h31.1v5.2h-24v6.8
							h14v5.2h-14v7.5h24.3v5.7H405.2z"/>
						
							<linearGradient id="SVGID_00000060032683789909901210000014679815883573756089_" gradientUnits="userSpaceOnUse" x1="460.5639" y1="168.1158" x2="460.5639" y2="217.1789">
							<stop  offset="0.1397" style="stop-color:#00C566"/>
							<stop  offset="1" style="stop-color:#002A63"/>
						</linearGradient>
						<path style="fill:url(#SVGID_00000060032683789909901210000014679815883573756089_);" d="M442.5,214.7v-30.4h26
							c2.4,0,4.2,0.5,5.2,1.4c1.1,0.9,1.6,2.4,1.6,4.5v7.1c0,2.1-0.5,3.5-1.6,4.5c-1.1,0.9-2.8,1.4-5.2,1.4h-4l14,11.5h-10.1
							l-12.2-11.5h-6.7v11.5H442.5z M465.4,189.6h-15.9v8.5h15.9c1.2,0,2.1-0.2,2.5-0.5c0.5-0.4,0.7-1,0.7-1.9V192
							c0-0.9-0.2-1.5-0.7-1.9C467.5,189.7,466.6,189.6,465.4,189.6z"/>
					</g>
				</g>
			</g>
			<g>
				
					<linearGradient id="SVGID_00000084522041465298916780000013443417960258368676_" gradientUnits="userSpaceOnUse" x1="509.3884" y1="168.1158" x2="509.3884" y2="217.1789">
					<stop  offset="0.1397" style="stop-color:#00C566"/>
					<stop  offset="1" style="stop-color:#002A63"/>
				</linearGradient>
				<path style="fill:url(#SVGID_00000084522041465298916780000013443417960258368676_);" d="M519.7,189.6h-19.9v6.5h18.9
					c3,0,5,0.5,6,1.5c1,1,1.6,2.9,1.6,5.7v4.2c0,2.8-0.5,4.6-1.6,5.7c-1,1-3.1,1.5-6,1.5H500c-3,0-5-0.5-6-1.5c-1-1-1.6-2.9-1.6-5.7
					v-0.8l6.2-1.3v3.6h21.5V202h-18.9c-3,0-4.9-0.5-6-1.5c-1-1-1.6-2.9-1.6-5.7v-3.4c0-2.8,0.5-4.6,1.6-5.7c1-1,3-1.5,6-1.5h17.2
					c2.9,0,4.8,0.5,5.9,1.5c1.1,1,1.6,2.7,1.6,5.2v0.6l-6.2,1.5V189.6z"/>
				
					<linearGradient id="SVGID_00000180337144513511163710000011062383155416959886_" gradientUnits="userSpaceOnUse" x1="549.4663" y1="168.1158" x2="549.4663" y2="217.1789">
					<stop  offset="0.1397" style="stop-color:#00C566"/>
					<stop  offset="1" style="stop-color:#002A63"/>
				</linearGradient>
				<path style="fill:url(#SVGID_00000180337144513511163710000011062383155416959886_);" d="M533,214.7v-30.4h26
					c2.4,0,4.2,0.5,5.2,1.4c1.1,0.9,1.6,2.4,1.6,4.5v6.8c0,2.1-0.5,3.5-1.6,4.5c-1.1,0.9-2.8,1.4-5.2,1.4h-19v11.8H533z
					 M555.9,189.6H540v8.1h15.9c1.2,0,2.1-0.2,2.5-0.5c0.5-0.4,0.7-1,0.7-1.9V192c0-0.9-0.2-1.5-0.7-1.9
					C558,189.7,557.1,189.6,555.9,189.6z"/>
				
					<linearGradient id="SVGID_00000039848022743625455130000013274945365643422597_" gradientUnits="userSpaceOnUse" x1="584.4373" y1="168.1158" x2="584.4373" y2="217.1789">
					<stop  offset="0.1397" style="stop-color:#00C566"/>
					<stop  offset="1" style="stop-color:#002A63"/>
				</linearGradient>
				<path style="fill:url(#SVGID_00000039848022743625455130000013274945365643422597_);" d="M563.7,214.7l17.2-30.4h6.8l17.4,30.4
					h-7.9l-3.7-6.6h-19.3l-3.5,6.6H563.7z M577.3,202.6h13.3l-6.6-12.4L577.3,202.6z"/>
				
					<linearGradient id="SVGID_00000126317017760821546650000005450061728563905932_" gradientUnits="userSpaceOnUse" x1="624.9601" y1="168.1158" x2="624.9601" y2="217.1789">
					<stop  offset="0.1397" style="stop-color:#00C566"/>
					<stop  offset="1" style="stop-color:#002A63"/>
				</linearGradient>
				<path style="fill:url(#SVGID_00000126317017760821546650000005450061728563905932_);" d="M634.5,189.7h-19.1V209h19.1v-6.5
					l7.1,1.5v3.6c0,2.8-0.5,4.7-1.6,5.7c-1,1-3,1.5-6,1.5h-18.1c-3,0-4.9-0.5-6-1.5c-1-1-1.6-2.9-1.6-5.7v-16c0-2.8,0.5-4.6,1.6-5.7
					c1-1,3-1.5,6-1.5H634c2.9,0,4.9,0.5,6,1.5c1,1,1.6,2.9,1.6,5.7v2.9l-7.1,1.1V189.7z"/>
				
					<linearGradient id="SVGID_00000041284999084905573490000017894505053015193225_" gradientUnits="userSpaceOnUse" x1="663.9158" y1="168.1158" x2="663.9158" y2="217.1789">
					<stop  offset="0.1397" style="stop-color:#00C566"/>
					<stop  offset="1" style="stop-color:#002A63"/>
				</linearGradient>
				<path style="fill:url(#SVGID_00000041284999084905573490000017894505053015193225_);" d="M648.2,214.7v-30.4h31.1v5.2h-24v6.8
					h14v5.2h-14v7.5h24.3v5.7H648.2z"/>
			</g>
		</g>
	</g>
	<g>
		<g>
			
				<linearGradient id="SVGID_00000156555922186318080690000018417240184803057058_" gradientUnits="userSpaceOnUse" x1="217.6647" y1="253.3512" x2="217.6647" y2="167.8145">
				<stop  offset="0.3156" style="stop-color:#7E8396"/>
				<stop  offset="0.919" style="stop-color:#434E60"/>
			</linearGradient>
			<path style="fill:url(#SVGID_00000156555922186318080690000018417240184803057058_);" d="M225.6,240c-5.7-2.5-9.8-8-10-14.6
				h-18.1c-4.7,0-9.3,0.9-13.9,2c-0.4,0.1-0.8,0.1-1.3,0c-1-0.2-1.8-1-2-2c-0.4-1.8,0.9-3.4,2.7-3.4c0.2,0,0.4,0,0.6,0.1
				c4.6,1.1,9.2,2,14,2h18c0,0,0,0,0,0c0.1-1.7,0.4-3.3,0.9-4.8c2.2-6.3,8-10.8,15-11.1v-16.5c0-4.7-0.9-9.3-2-13.9
				c-0.1-0.4-0.1-0.8,0-1.3c0.2-1,1-1.8,2-2c1.8-0.4,3.4,0.9,3.4,2.7c0,0.2,0,0.4-0.1,0.6c-1.1,4.6-2,9.2-2,14v16.5
				c6.9,0.3,12.7,4.8,14.9,11.1c0.6,1.7,1,3.6,1,5.5c0,0.1,0,0.1,0,0.2c0,3.1-0.9,6-2.4,8.4c2.2,2.2,5.2,3.6,8.6,3.6
				c1.2,0,2.3-0.2,3.3-0.5c1.6-3.5,2.5-7.4,2.5-11.5c0-0.1,0-0.1,0-0.2c0-1.9-0.2-3.7-0.5-5.5c-2.4-12.1-12.3-21.4-24.7-22.9l0-4.8
				c0-3.3,1.1-6.4,3.2-9c1.2-1.5,1.9-3.4,1.9-5.5c0-4.4-3.7-8.2-8.1-8.4c-4.8-0.2-8.8,3.7-8.8,8.4c0,2,0.7,3.8,1.8,5.3
				c2.1,2.6,3.3,5.7,3.3,9v4.9c-12.4,1.4-22.3,10.8-24.7,22.9c-0.1,0.7-0.3,1.5-0.4,2.3h-6.4c-3.3,0-6.5-1.1-9-3.3
				c-1.5-1.2-3.4-2-5.4-2c-4.5,0-8.2,3.7-8.4,8.1c-0.2,4.8,3.7,8.8,8.4,8.8c2,0,3.8-0.7,5.2-1.8c2.6-2,5.7-3.2,8.9-3.2h6.6
				c1.7,14.2,13.8,25.2,28.4,25.2c1.9,0,3.7-0.2,5.4-0.5C232.5,249.7,228.4,245.3,225.6,240z"/>
		</g>
		
			<linearGradient id="SVGID_00000096061498267933411530000016285261500557477779_" gradientUnits="userSpaceOnUse" x1="461.3768" y1="195.7097" x2="461.3768" y2="281.9006">
			<stop  offset="0" style="stop-color:#00C566"/>
			<stop  offset="1" style="stop-color:#002A63"/>
		</linearGradient>
		<path style="fill:url(#SVGID_00000096061498267933411530000016285261500557477779_);" d="M688,216.3c-2.1,0-4,0.7-5.4,2
			c-2.5,2.1-5.7,3.3-9,3.3H283.3c-1.6-14.3-13.7-25.4-28.4-25.4c-1.8,0-3.6,0.2-5.4,0.5c5,3.1,9.1,7.5,11.9,12.8
			c5.8,2.4,9.8,8,10.1,14.6h402.3c4.7,0,9.3-0.9,13.9-2c0.4-0.1,0.8-0.1,1.3,0c1,0.2,1.8,1,2,2c0.4,1.8-0.9,3.4-2.7,3.4
			c-0.2,0-0.4,0-0.6-0.1c-4.6-1.1-9.2-2-14-2H271.5c0,0.2,0,0.3,0,0.5c-0.6,8.2-7.3,14.9-15.5,15.4c-0.1,0-0.3,0-0.4,0v16.6
			c0,4.7,0.9,9.3,2,13.9c0.1,0.4,0.1,0.8,0,1.3c-0.2,1-1,1.8-2,2c-1.8,0.4-3.4-0.9-3.4-2.7c0-0.2,0-0.4,0.1-0.6c1.1-4.6,2-9.2,2-14
			v-16.5c-8.8-0.4-15.9-7.7-15.9-16.6c0-3.1,0.9-6.1,2.4-8.6c-2.2-2.2-5.2-3.6-8.6-3.6c-1.2,0-2.3,0.2-3.3,0.5
			c-1.6,3.6-2.5,7.5-2.5,11.7c0,14.6,11,26.7,25.2,28.4l0,4.9c0,3.2-1.1,6.4-3.1,8.9c-1.2,1.5-1.9,3.4-1.9,5.4
			c0.1,4.4,3.7,8.1,8.1,8.3c4.8,0.2,8.8-3.7,8.8-8.4c0-2.1-0.7-3.9-2-5.4c-2.1-2.5-3.3-5.7-3.3-9v-4.7c13.2-1.5,23.6-11.9,25.2-25
			h390.5c3.3,0,6.4,1.2,8.9,3.2c1.4,1.1,3.2,1.8,5.2,1.8c4.8,0,8.6-4,8.4-8.8C696.3,219.9,692.5,216.3,688,216.3z"/>
	</g>
	<g>
		<g>
			<path class="st12" d="M288.6,261v-23.3h20c1.8,0,3.2,0.4,4,1.1c0.8,0.7,1.2,1.9,1.2,3.4v2.8c0,1.1-0.3,2-1,2.7
				c-0.7,0.7-1.7,1.1-3,1.2c1.3,0.2,2.4,0.7,3.1,1.4c0.7,0.8,1.1,1.8,1.1,3v3c0,1.5-0.6,2.7-1.7,3.4c-1.1,0.8-2.9,1.1-5.2,1.1H288.6
				z M306.3,241.5H294v5.6h12.4c0.9,0,1.6-0.1,2-0.4c0.4-0.3,0.5-0.7,0.5-1.3v-2.2c0-0.6-0.2-1-0.5-1.3
				C307.9,241.6,307.3,241.5,306.3,241.5z M306.3,250.9H294v5.9h12.4c1,0,1.7-0.2,2.1-0.5c0.4-0.3,0.5-0.9,0.5-1.6V253
				c0-0.8-0.2-1.3-0.5-1.6C308.1,251.1,307.4,250.9,306.3,250.9z"/>
			<path class="st12" d="M324.2,237.7v18.9h15.5v-18.9h5.4v17.8c0,2.1-0.4,3.6-1.2,4.4c-0.8,0.8-2.3,1.2-4.6,1.2h-14.7
				c-2.3,0-3.8-0.4-4.6-1.2c-0.8-0.8-1.2-2.2-1.2-4.4v-17.8H324.2z"/>
			<path class="st12" d="M350.6,261v-23.3h15c4.3,0,7.6,1,9.9,3c2.3,2,3.5,4.8,3.5,8.5c0,2.2-0.4,4.1-1.3,5.9
				c-0.9,1.7-2.2,3.1-3.8,4.1c-1,0.6-2.3,1.1-3.8,1.4c-1.5,0.3-3.4,0.4-5.8,0.4H350.6z M356,256.7h7c3.7,0,6.4-0.6,7.9-1.7
				c1.6-1.2,2.3-3.1,2.3-5.8c0-2.4-0.6-4.2-1.9-5.4c-1.3-1.2-3.2-1.8-5.7-1.8H356V256.7z"/>
			<path class="st12" d="M383.4,261v-23.3h15c4.3,0,7.6,1,9.9,3c2.3,2,3.5,4.8,3.5,8.5c0,2.2-0.4,4.1-1.3,5.9
				c-0.9,1.7-2.2,3.1-3.8,4.1c-1,0.6-2.3,1.1-3.8,1.4c-1.5,0.3-3.4,0.4-5.8,0.4H383.4z M388.8,256.7h7c3.7,0,6.4-0.6,7.9-1.7
				c1.6-1.2,2.3-3.1,2.3-5.8c0-2.4-0.6-4.2-1.9-5.4c-1.3-1.2-3.2-1.8-5.7-1.8h-9.6V256.7z"/>
			<path class="st12" d="M422.9,261v-10.4l-12.1-12.9h7.2l8,9l8-9h6.4l-12.1,12.8V261H422.9z"/>
			<g>
				<path class="st12" d="M445.6,237.7h6.9v1.6h-5.6v5.2h-1.3V237.7z"/>
				<path class="st12" d="M445.6,245.7h6.9v1.6h-5.6v5.2h-1.3V245.7z"/>
				<path class="st12" d="M451.2,259.4v-4.3h-4.3v4.3h1.5L448,261h-0.8c-0.6,0-1.1-0.1-1.3-0.4c-0.2-0.2-0.3-0.7-0.3-1.3v-4.1
					c0-0.7,0.1-1.1,0.3-1.4c0.2-0.2,0.7-0.4,1.3-0.4h3.6c0.6,0,1.1,0.1,1.3,0.4c0.2,0.2,0.3,0.7,0.3,1.4v4.1c0,0.7-0.1,1.1-0.3,1.3
					c-0.2,0.2-0.7,0.4-1.3,0.4h-0.6l-0.3-1.6H451.2z"/>
			</g>
		</g>
		<g>
			<g>
				<path class="st12" d="M468.6,238.7l-0.6,1.2c-0.9-0.5-1.8-0.8-2.4-0.8c-0.8,0-1.4,0.3-1.4,0.9c0,1.8,4.5,0.8,4.5,3.8
					c0,1.5-1.3,2.4-3.1,2.4c-1.3,0-2.5-0.5-3.4-1.3l0.6-1.2c0.9,0.8,1.9,1.2,2.8,1.2c1,0,1.6-0.4,1.6-1c0-1.9-4.5-0.8-4.5-3.8
					c0-1.4,1.2-2.3,3-2.3C466.8,237.9,467.8,238.2,468.6,238.7z"/>
				<path class="st12" d="M473,239.2v2.2h4.1v1.3H473v2.3h4.7v1.3h-6.1v-8.3h6v1.3H473z"/>
				<path class="st12" d="M481.7,244.4l-0.8,1.9h-1.5l3.7-8.3h1.4l3.6,8.3h-1.5l-0.8-1.9H481.7z M483.8,239.4l-1.6,3.7h3.1
					L483.8,239.4z"/>
				<path class="st12" d="M498,246.2l0-6.2l-2.6,5.4h-0.9l-2.6-5.4v6.2h-1.3v-8.3h1.7l2.7,5.5l2.7-5.5h1.7v8.3H498z"/>
				<path class="st12" d="M507.7,245v1.3h-5v-8.3h1.4v7.1H507.7z"/>
				<path class="st12" d="M511.7,239.2v2.2h4.1v1.3h-4.1v2.3h4.7v1.3h-6.1v-8.3h6v1.3H511.7z"/>
				<path class="st12" d="M524.9,238.7l-0.6,1.2c-0.9-0.5-1.8-0.8-2.4-0.8c-0.8,0-1.4,0.3-1.4,0.9c0,1.8,4.5,0.8,4.5,3.8
					c0,1.5-1.3,2.4-3.1,2.4c-1.3,0-2.5-0.5-3.4-1.3l0.6-1.2c0.9,0.8,1.9,1.2,2.8,1.2c1,0,1.6-0.4,1.6-1c0-1.9-4.5-0.8-4.5-3.8
					c0-1.4,1.2-2.3,3-2.3C523.1,237.9,524.2,238.2,524.9,238.7z"/>
				<path class="st12" d="M533.5,238.7l-0.6,1.2c-0.9-0.5-1.8-0.8-2.4-0.8c-0.8,0-1.4,0.3-1.4,0.9c0,1.8,4.5,0.8,4.5,3.8
					c0,1.5-1.3,2.4-3.1,2.4c-1.3,0-2.5-0.5-3.4-1.3l0.6-1.2c0.9,0.8,1.9,1.2,2.8,1.2c1,0,1.6-0.4,1.6-1c0-1.9-4.5-0.8-4.5-3.8
					c0-1.4,1.2-2.3,3-2.3C531.7,237.9,532.8,238.2,533.5,238.7z"/>
				<path class="st12" d="M541.9,244.4l-0.8,1.9h-1.5l3.7-8.3h1.4l3.6,8.3h-1.5l-0.8-1.9H541.9z M544,239.4l-1.6,3.7h3.1L544,239.4z
					"/>
				<path class="st12" d="M557.6,242.8c0,2.2-1.4,3.5-3.6,3.5s-3.6-1.3-3.6-3.5v-4.9h1.4v4.9c0,1.4,0.9,2.3,2.2,2.3
					c1.4,0,2.2-0.8,2.2-2.3v-4.9h1.4V242.8z"/>
				<path class="st12" d="M563.8,239.2v7.1h-1.4v-7.1h-2.6v-1.3h6.7v1.3H563.8z"/>
				<path class="st12" d="M576.5,242.1c0,2.4-1.9,4.2-4.4,4.2c-2.5,0-4.4-1.8-4.4-4.2c0-2.4,1.9-4.2,4.4-4.2
					C574.6,237.9,576.5,239.7,576.5,242.1z M569.1,242.1c0,1.7,1.4,3,3,3c1.6,0,3-1.3,3-3c0-1.7-1.3-2.9-3-2.9
					C570.5,239.1,569.1,240.4,569.1,242.1z"/>
				<path class="st12" d="M586.7,246.2l0-6.2l-2.6,5.4h-0.9l-2.6-5.4v6.2h-1.3v-8.3h1.7l2.7,5.5l2.7-5.5h1.7v8.3H586.7z"/>
				<path class="st12" d="M592.6,244.4l-0.8,1.9h-1.5l3.7-8.3h1.4l3.6,8.3h-1.5l-0.8-1.9H592.6z M594.7,239.4l-1.6,3.7h3.1
					L594.7,239.4z"/>
				<path class="st12" d="M603.6,239.2v7.1h-1.4v-7.1h-2.6v-1.3h6.7v1.3H603.6z"/>
				<path class="st12" d="M608.7,246.2v-8.3h1.4v8.3H608.7z"/>
				<path class="st12" d="M621.6,242.1c0,2.4-1.9,4.2-4.4,4.2c-2.5,0-4.4-1.8-4.4-4.2c0-2.4,1.9-4.2,4.4-4.2
					C619.7,237.9,621.6,239.7,621.6,242.1z M614.2,242.1c0,1.7,1.4,3,3,3c1.6,0,3-1.3,3-3c0-1.7-1.3-2.9-3-2.9
					C615.5,239.1,614.2,240.4,614.2,242.1z"/>
				<path class="st12" d="M630.1,246.2l-4.4-6v6h-1.4v-8.3h1.4l4.5,6v-6h1.4v8.3H630.1z"/>
				<path class="st12" d="M635.8,245.6c0,0.2-0.1,0.4-0.2,0.6l-0.7,1h-0.7l0.5-1c-0.2-0.1-0.3-0.4-0.3-0.6c0-0.4,0.3-0.8,0.7-0.8
					C635.5,244.8,635.8,245.1,635.8,245.6z"/>
			</g>
			<g>
				<path class="st12" d="M469.1,253.3l-0.6,1.2c-0.9-0.5-1.8-0.8-2.4-0.8c-0.8,0-1.4,0.3-1.4,0.9c0,1.8,4.5,0.8,4.5,3.8
					c0,1.5-1.3,2.4-3.1,2.4c-1.3,0-2.5-0.5-3.4-1.3l0.6-1.2c0.9,0.8,1.9,1.2,2.8,1.2c1,0,1.6-0.4,1.6-1c0-1.9-4.5-0.8-4.5-3.8
					c0-1.4,1.2-2.3,3-2.3C467.2,252.5,468.3,252.8,469.1,253.3z"/>
				<path class="st12" d="M479.5,260.9l0-6.2l-2.6,5.4H476l-2.6-5.4v6.2H472v-8.3h1.7l2.7,5.5l2.7-5.5h1.7v8.3H479.5z"/>
				<path class="st12" d="M485.4,259l-0.8,1.9h-1.5l3.7-8.3h1.4l3.6,8.3h-1.5l-0.8-1.9H485.4z M487.5,254l-1.6,3.7h3.1L487.5,254z"
					/>
				<path class="st12" d="M498,258.3c-0.1,0-0.2,0-0.4,0h-2v2.5h-1.4v-8.3h3.4c2.1,0,3.4,1,3.4,2.8c0,1.3-0.6,2.3-1.7,2.7l1.9,2.8
					h-1.6L498,258.3z M497.6,257.1c1.3,0,2-0.5,2-1.7c0-1.1-0.7-1.6-2-1.6h-2v3.3H497.6z"/>
				<path class="st12" d="M507,253.8v7.1h-1.4v-7.1H503v-1.3h6.7v1.3H507z"/>
				<path class="st12" d="M513.5,253.8v2.2h4.1v1.3h-4.1v2.3h4.7v1.3h-6.1v-8.3h6v1.3H513.5z"/>
				<path class="st12" d="M524.8,258.3c-0.1,0-0.2,0-0.4,0h-2v2.5h-1.4v-8.3h3.4c2.1,0,3.4,1,3.4,2.8c0,1.3-0.6,2.3-1.7,2.7l1.9,2.8
					h-1.6L524.8,258.3z M524.5,257.1c1.3,0,2-0.5,2-1.7c0-1.1-0.7-1.6-2-1.6h-2v3.3H524.5z"/>
				<path class="st12" d="M540.8,253.3l-0.6,1.2c-0.9-0.5-1.8-0.8-2.4-0.8c-0.8,0-1.4,0.3-1.4,0.9c0,1.8,4.5,0.8,4.5,3.8
					c0,1.5-1.3,2.4-3.1,2.4c-1.3,0-2.5-0.5-3.4-1.3l0.6-1.2c0.9,0.8,1.9,1.2,2.8,1.2c1,0,1.6-0.4,1.6-1c0-1.9-4.5-0.8-4.5-3.8
					c0-1.4,1.2-2.3,3-2.3C539,252.5,540,252.8,540.8,253.3z"/>
				<path class="st12" d="M551.9,256.7c0,2.4-1.9,4.2-4.4,4.2s-4.4-1.8-4.4-4.2c0-2.4,1.9-4.2,4.4-4.2S551.9,254.3,551.9,256.7z
					 M544.5,256.7c0,1.7,1.4,3,3,3c1.6,0,3-1.3,3-3c0-1.7-1.3-2.9-3-2.9C545.8,253.8,544.5,255,544.5,256.7z"/>
				<path class="st12" d="M559.6,259.6v1.3h-5v-8.3h1.4v7.1H559.6z"/>
				<path class="st12" d="M569.2,257.4c0,2.2-1.4,3.5-3.6,3.5c-2.2,0-3.6-1.3-3.6-3.5v-4.9h1.4v4.9c0,1.4,0.9,2.3,2.2,2.3
					c1.4,0,2.2-0.8,2.2-2.3v-4.9h1.4V257.4z"/>
				<path class="st12" d="M575.5,253.8v7.1h-1.4v-7.1h-2.6v-1.3h6.7v1.3H575.5z"/>
				<path class="st12" d="M580.5,260.9v-8.3h1.4v8.3H580.5z"/>
				<path class="st12" d="M593.4,256.7c0,2.4-1.9,4.2-4.4,4.2s-4.4-1.8-4.4-4.2c0-2.4,1.9-4.2,4.4-4.2S593.4,254.3,593.4,256.7z
					 M586,256.7c0,1.7,1.4,3,3,3c1.6,0,3-1.3,3-3c0-1.7-1.3-2.9-3-2.9C587.4,253.8,586,255,586,256.7z"/>
				<path class="st12" d="M602,260.9l-4.4-6v6h-1.4v-8.3h1.4l4.5,6v-6h1.4v8.3H602z"/>
				<path class="st12" d="M612.4,253.3l-0.6,1.2c-0.9-0.5-1.8-0.8-2.4-0.8c-0.8,0-1.4,0.3-1.4,0.9c0,1.8,4.5,0.8,4.5,3.8
					c0,1.5-1.3,2.4-3.1,2.4c-1.3,0-2.5-0.5-3.4-1.3l0.6-1.2c0.9,0.8,1.9,1.2,2.8,1.2c1,0,1.6-0.4,1.6-1c0-1.9-4.5-0.8-4.5-3.8
					c0-1.4,1.2-2.3,3-2.3C610.6,252.5,611.6,252.8,612.4,253.3z"/>
			</g>
		</g>
	</g>
</g>
</svg>
